<svg width="116" height="29" viewBox="0 0 116 29" fill="none" xmlns="http://www.w3.org/2000/svg">
<path d="M13.585 6.79249C13.585 10.5439 10.5439 13.585 6.79249 13.585C3.0411 13.585 0 10.5439 0 6.79249C0 3.0411 3.0411 0 6.79249 0C10.5439 0 13.585 3.0411 13.585 6.79249Z" fill="#EE3E08"/>
<path d="M14.4832 6.7925C14.4832 3.04111 17.5243 0 21.2757 0C25.0271 0 28.0682 3.0411 28.0682 6.79249C28.0682 10.5439 25.0271 13.585 21.2757 13.585H14.4832V6.7925Z" fill="#EE3E08"/>
<path d="M0 21.2757C0 17.5243 3.0411 14.4832 6.79249 14.4832H13.585V21.2757C13.585 25.0271 10.5439 28.0682 6.79249 28.0682C3.0411 28.0682 0 25.0271 0 21.2757Z" fill="#EE3E08"/>
<path d="M28.0682 21.2757C28.0682 25.0271 25.0271 28.0682 21.2757 28.0682C17.5243 28.0682 14.4832 25.0271 14.4832 21.2757C14.4832 17.5243 17.5243 14.4832 21.2757 14.4832C25.0271 14.4832 28.0682 17.5243 28.0682 21.2757Z" fill="#EE3E08"/>
<path d="M44.8907 23.9924C43.3626 23.9924 41.9698 23.6125 40.7123 22.8528C39.4636 22.0844 38.4681 20.9666 37.7259 19.4996C36.9923 18.0238 36.6256 16.2119 36.6256 14.0637C36.6256 11.9243 37.0142 10.1124 37.7914 8.62788C38.5685 7.14338 39.612 6.01255 40.9219 5.23537C42.2405 4.4582 43.7119 4.06961 45.3361 4.06961C46.6896 4.06961 47.8335 4.28792 48.7679 4.72453C49.711 5.16115 50.475 5.72002 51.0601 6.40114C51.6539 7.08226 52.0862 7.80267 52.3569 8.56238C52.6276 9.31336 52.7629 10.0076 52.7629 10.645C52.7629 10.6712 52.7629 10.6974 52.7629 10.7236C52.7629 10.7498 52.7629 10.776 52.7629 10.8022H48.8072C48.8072 10.776 48.8072 10.7498 48.8072 10.7236C48.8072 10.6974 48.8072 10.6712 48.8072 10.645C48.8072 10.2434 48.7329 9.84603 48.5845 9.45308C48.436 9.05139 48.2134 8.69337 47.9165 8.379C47.6283 8.06464 47.2659 7.8114 46.8293 7.61929C46.4014 7.42718 45.9037 7.33113 45.3361 7.33113C44.5676 7.33113 43.8341 7.54944 43.1355 7.98605C42.4369 8.42267 41.865 9.13435 41.4196 10.1211C40.9743 11.0991 40.7516 12.4133 40.7516 14.0637C40.7516 15.3212 40.8739 16.3778 41.1184 17.2336C41.3716 18.0893 41.7078 18.7748 42.1269 19.29C42.5461 19.7965 43.022 20.1633 43.5547 20.3903C44.0961 20.6173 44.655 20.7309 45.2313 20.7309C46.0259 20.7309 46.6896 20.5999 47.2223 20.3379C47.7637 20.0672 48.1872 19.7354 48.4928 19.3424C48.7984 18.9495 48.9949 18.5609 49.0822 18.1767V16.9192H45.2575V13.9852H52.6843V23.678H50.5493L50.1825 21.543C50.1126 21.7089 49.9642 21.9272 49.7372 22.1979C49.5101 22.4686 49.187 22.7437 48.7679 23.0231C48.3575 23.2938 47.8291 23.5208 47.183 23.7042C46.5455 23.8963 45.7814 23.9924 44.8907 23.9924ZM55.9399 23.678V9.76744H60.0135V14.5615L59.1752 14.0375C59.2713 13.3826 59.4459 12.7801 59.6992 12.23C59.9524 11.6798 60.2799 11.2039 60.6815 10.8022C61.0832 10.3918 61.5591 10.0731 62.1093 9.84603C62.6681 9.61899 63.3056 9.50547 64.0217 9.50547C64.5805 9.50547 65.0171 9.54914 65.3315 9.63646C65.6546 9.71505 65.8554 9.77617 65.934 9.81984L65.266 13.4612C65.1874 13.4176 65.0128 13.3477 64.7421 13.2516C64.4714 13.1556 64.1221 13.1076 63.6942 13.1076C62.9956 13.1076 62.4105 13.2254 61.939 13.4612C61.4675 13.697 61.0876 14.0113 60.7994 14.4043C60.52 14.7885 60.3192 15.2164 60.1969 15.688C60.0747 16.1595 60.0135 16.6354 60.0135 17.1157V23.678H55.9399ZM67.8323 23.678V9.76744H71.8535V23.678H67.8323ZM69.8364 7.50141C69.2076 7.50141 68.6575 7.33549 68.1859 7.00367C67.7231 6.67184 67.4917 6.20466 67.4917 5.60213C67.4917 4.99087 67.7231 4.51932 68.1859 4.18749C68.6575 3.85567 69.2076 3.68975 69.8364 3.68975C70.4738 3.68975 71.024 3.85567 71.4868 4.18749C71.9583 4.51932 72.1941 4.99087 72.1941 5.60213C72.1941 6.21339 71.9583 6.68494 71.4868 7.01676C71.024 7.33986 70.4738 7.50141 69.8364 7.50141ZM83.53 23.678V18.2945C83.53 17.7793 83.53 17.334 83.53 16.9585C83.53 16.5743 83.53 16.2556 83.53 16.0023C83.53 15.6443 83.5082 15.2906 83.4645 14.9413C83.4296 14.592 83.3422 14.269 83.2025 13.9721C83.0715 13.6664 82.8663 13.4263 82.5869 13.2516C82.3075 13.0683 81.9276 12.9766 81.4473 12.9766C81.002 12.9766 80.6178 13.0726 80.2947 13.2647C79.9716 13.4481 79.7052 13.7057 79.4957 14.0375C79.2948 14.3606 79.1464 14.7361 79.0503 15.164C78.9543 15.5832 78.9062 16.0241 78.9062 16.487L77.7929 15.5701C77.7929 14.3912 78.0068 13.3477 78.4347 12.4395C78.8626 11.5226 79.4695 10.8066 80.2554 10.2914C81.05 9.76744 81.9887 9.50547 83.0715 9.50547C84.2329 9.50547 85.1367 9.75434 85.7829 10.2521C86.4379 10.7411 86.8963 11.396 87.1583 12.2169C87.429 13.029 87.5643 13.9284 87.5643 14.9151C87.5643 15.2906 87.5643 15.7971 87.5643 16.4346C87.5643 17.072 87.5643 17.8361 87.5643 18.7268V23.678H83.53ZM74.8457 23.678V9.76744H78.9062V23.678H74.8457ZM92.175 23.678V18.3076C92.175 17.775 92.175 17.3165 92.175 16.9323C92.175 16.5481 92.175 16.2294 92.175 15.9761C92.175 15.5919 92.1532 15.2251 92.1095 14.8758C92.0658 14.5178 91.9741 14.1947 91.8344 13.9066C91.6947 13.6184 91.4851 13.3914 91.2057 13.2254C90.9263 13.0595 90.5464 12.9766 90.0661 12.9766C89.6208 12.9766 89.2366 13.0726 88.9135 13.2647C88.5991 13.4481 88.3415 13.7014 88.1407 14.0244C87.9398 14.3475 87.7914 14.7143 87.6953 15.1247C87.608 15.5351 87.5643 15.963 87.5643 16.4084L86.451 15.5046C86.451 14.3432 86.6605 13.3128 87.0797 12.4133C87.5076 11.5139 88.1101 10.8066 88.8873 10.2914C89.6732 9.76744 90.6119 9.50547 91.7034 9.50547C92.8386 9.50547 93.7337 9.74561 94.3886 10.2259C95.0523 10.7062 95.5238 11.348 95.8033 12.1514C96.0914 12.946 96.2355 13.8367 96.2355 14.8235C96.2355 15.2164 96.2355 15.7229 96.2355 16.3429C96.2355 16.9629 96.2355 17.7182 96.2355 18.6089V23.678H92.175ZM106.246 23.9793C104.744 23.9793 103.421 23.6693 102.277 23.0493C101.133 22.4293 100.238 21.5779 99.5918 20.4951C98.9543 19.4036 98.6356 18.1461 98.6356 16.7227C98.6356 15.3081 98.9543 14.0594 99.5918 12.9766C100.238 11.885 101.133 11.038 102.277 10.4355C103.421 9.8242 104.744 9.51857 106.246 9.51857C107.748 9.51857 109.071 9.8242 110.215 10.4355C111.359 11.038 112.249 11.885 112.887 12.9766C113.533 14.0594 113.856 15.3081 113.856 16.7227C113.856 18.1461 113.533 19.4036 112.887 20.4951C112.249 21.5779 111.359 22.4293 110.215 23.0493C109.071 23.6693 107.748 23.9793 106.246 23.9793ZM106.246 20.7571C106.953 20.7571 107.569 20.5911 108.093 20.2593C108.617 19.9275 109.023 19.4603 109.311 18.8578C109.599 18.2465 109.743 17.5348 109.743 16.7227C109.743 15.9106 109.599 15.2077 109.311 14.6139C109.023 14.0113 108.617 13.5485 108.093 13.2254C107.569 12.9023 106.953 12.7408 106.246 12.7408C105.547 12.7408 104.932 12.9023 104.399 13.2254C103.875 13.5485 103.469 14.0113 103.181 14.6139C102.893 15.2077 102.749 15.9106 102.749 16.7227C102.749 17.5348 102.893 18.2465 103.181 18.8578C103.469 19.4603 103.875 19.9275 104.399 20.2593C104.932 20.5911 105.547 20.7571 106.246 20.7571Z" fill="white"/>
</svg>
